<mxfile host="app.diagrams.net" agent="Mozilla/5.0 (Windows NT 10.0; Win64; x64) AppleWebKit/537.36 (KHTML, like Gecko) Chrome/129.0.0.0 Safari/537.36" version="24.7.17">
  <diagram name="Page-1" id="47iJW5Fyt73lowKEgQgA">
    <mxGraphModel dx="1688" dy="438" grid="1" gridSize="10" guides="1" tooltips="1" connect="1" arrows="1" fold="1" page="1" pageScale="1" pageWidth="850" pageHeight="1100" math="0" shadow="0">
      <root>
        <mxCell id="0" />
        <mxCell id="1" parent="0" />
        <mxCell id="y-mk62jJRqAOhMk4SxJC-1" value="Product" style="whiteSpace=wrap;html=1;align=center;" vertex="1" parent="1">
          <mxGeometry x="91" y="80" width="143" height="80" as="geometry" />
        </mxCell>
        <mxCell id="y-mk62jJRqAOhMk4SxJC-2" value="Vendor" style="whiteSpace=wrap;html=1;align=center;" vertex="1" parent="1">
          <mxGeometry x="751" y="80" width="133" height="70" as="geometry" />
        </mxCell>
        <mxCell id="y-mk62jJRqAOhMk4SxJC-3" value="Customer" style="whiteSpace=wrap;html=1;align=center;" vertex="1" parent="1">
          <mxGeometry x="345" y="380" width="130" height="70" as="geometry" />
        </mxCell>
        <mxCell id="y-mk62jJRqAOhMk4SxJC-4" value="Order" style="whiteSpace=wrap;html=1;align=center;" vertex="1" parent="1">
          <mxGeometry x="80" y="510" width="120" height="70" as="geometry" />
        </mxCell>
        <mxCell id="y-mk62jJRqAOhMk4SxJC-5" value="Review" style="whiteSpace=wrap;html=1;align=center;" vertex="1" parent="1">
          <mxGeometry x="760" y="510" width="130" height="70" as="geometry" />
        </mxCell>
        <mxCell id="y-mk62jJRqAOhMk4SxJC-6" value="Payment" style="whiteSpace=wrap;html=1;align=center;" vertex="1" parent="1">
          <mxGeometry x="365" y="740" width="130" height="70" as="geometry" />
        </mxCell>
        <mxCell id="y-mk62jJRqAOhMk4SxJC-7" value="VendorID" style="ellipse;whiteSpace=wrap;html=1;align=center;fontStyle=4;" vertex="1" parent="1">
          <mxGeometry x="951" y="40" width="103" height="40" as="geometry" />
        </mxCell>
        <mxCell id="y-mk62jJRqAOhMk4SxJC-8" value="Name" style="ellipse;whiteSpace=wrap;html=1;align=center;" vertex="1" parent="1">
          <mxGeometry x="951" y="90" width="103" height="40" as="geometry" />
        </mxCell>
        <mxCell id="y-mk62jJRqAOhMk4SxJC-9" value="ContactDetails" style="ellipse;whiteSpace=wrap;html=1;align=center;" vertex="1" parent="1">
          <mxGeometry x="951" y="150" width="103" height="40" as="geometry" />
        </mxCell>
        <mxCell id="y-mk62jJRqAOhMk4SxJC-10" value="Address" style="ellipse;whiteSpace=wrap;html=1;align=center;" vertex="1" parent="1">
          <mxGeometry x="951" y="210" width="103" height="40" as="geometry" />
        </mxCell>
        <mxCell id="y-mk62jJRqAOhMk4SxJC-12" value="" style="endArrow=none;html=1;rounded=0;entryX=0;entryY=0.5;entryDx=0;entryDy=0;exitX=1;exitY=0;exitDx=0;exitDy=0;" edge="1" parent="1" source="y-mk62jJRqAOhMk4SxJC-2" target="y-mk62jJRqAOhMk4SxJC-7">
          <mxGeometry relative="1" as="geometry">
            <mxPoint x="661" y="210" as="sourcePoint" />
            <mxPoint x="821" y="210" as="targetPoint" />
          </mxGeometry>
        </mxCell>
        <mxCell id="y-mk62jJRqAOhMk4SxJC-13" value="" style="endArrow=none;html=1;rounded=0;exitX=1;exitY=0.25;exitDx=0;exitDy=0;entryX=0;entryY=0.5;entryDx=0;entryDy=0;" edge="1" parent="1" source="y-mk62jJRqAOhMk4SxJC-2" target="y-mk62jJRqAOhMk4SxJC-8">
          <mxGeometry relative="1" as="geometry">
            <mxPoint x="671" y="220" as="sourcePoint" />
            <mxPoint x="831" y="220" as="targetPoint" />
          </mxGeometry>
        </mxCell>
        <mxCell id="y-mk62jJRqAOhMk4SxJC-14" value="" style="endArrow=none;html=1;rounded=0;exitX=1;exitY=0.5;exitDx=0;exitDy=0;entryX=0;entryY=0.5;entryDx=0;entryDy=0;" edge="1" parent="1" source="y-mk62jJRqAOhMk4SxJC-2" target="y-mk62jJRqAOhMk4SxJC-9">
          <mxGeometry relative="1" as="geometry">
            <mxPoint x="681" y="230" as="sourcePoint" />
            <mxPoint x="841" y="230" as="targetPoint" />
          </mxGeometry>
        </mxCell>
        <mxCell id="y-mk62jJRqAOhMk4SxJC-15" value="" style="endArrow=none;html=1;rounded=0;exitX=1;exitY=0.75;exitDx=0;exitDy=0;entryX=0;entryY=0.5;entryDx=0;entryDy=0;" edge="1" parent="1" source="y-mk62jJRqAOhMk4SxJC-2" target="y-mk62jJRqAOhMk4SxJC-10">
          <mxGeometry relative="1" as="geometry">
            <mxPoint x="901" y="160" as="sourcePoint" />
            <mxPoint x="851" y="240" as="targetPoint" />
          </mxGeometry>
        </mxCell>
        <mxCell id="y-mk62jJRqAOhMk4SxJC-24" value="ProductID " style="ellipse;whiteSpace=wrap;html=1;align=center;fontStyle=4;" vertex="1" parent="1">
          <mxGeometry x="-109" y="30" width="103" height="40" as="geometry" />
        </mxCell>
        <mxCell id="y-mk62jJRqAOhMk4SxJC-25" value="Name" style="ellipse;whiteSpace=wrap;html=1;align=center;" vertex="1" parent="1">
          <mxGeometry x="-109" y="80" width="103" height="40" as="geometry" />
        </mxCell>
        <mxCell id="y-mk62jJRqAOhMk4SxJC-26" value="Price" style="ellipse;whiteSpace=wrap;html=1;align=center;" vertex="1" parent="1">
          <mxGeometry x="-109" y="140" width="103" height="40" as="geometry" />
        </mxCell>
        <mxCell id="y-mk62jJRqAOhMk4SxJC-27" value="Description" style="ellipse;whiteSpace=wrap;html=1;align=center;" vertex="1" parent="1">
          <mxGeometry x="-109" y="200" width="103" height="40" as="geometry" />
        </mxCell>
        <mxCell id="y-mk62jJRqAOhMk4SxJC-28" value="" style="endArrow=none;html=1;rounded=0;exitX=1;exitY=0.5;exitDx=0;exitDy=0;entryX=0;entryY=0;entryDx=0;entryDy=0;" edge="1" parent="1" source="y-mk62jJRqAOhMk4SxJC-24" target="y-mk62jJRqAOhMk4SxJC-1">
          <mxGeometry relative="1" as="geometry">
            <mxPoint x="191" y="160" as="sourcePoint" />
            <mxPoint x="351" y="160" as="targetPoint" />
          </mxGeometry>
        </mxCell>
        <mxCell id="y-mk62jJRqAOhMk4SxJC-29" value="" style="endArrow=none;html=1;rounded=0;exitX=1;exitY=0.5;exitDx=0;exitDy=0;entryX=0;entryY=0.25;entryDx=0;entryDy=0;" edge="1" parent="1" source="y-mk62jJRqAOhMk4SxJC-25" target="y-mk62jJRqAOhMk4SxJC-1">
          <mxGeometry relative="1" as="geometry">
            <mxPoint x="201" y="170" as="sourcePoint" />
            <mxPoint x="361" y="170" as="targetPoint" />
          </mxGeometry>
        </mxCell>
        <mxCell id="y-mk62jJRqAOhMk4SxJC-30" value="" style="endArrow=none;html=1;rounded=0;exitX=1;exitY=0.5;exitDx=0;exitDy=0;entryX=0;entryY=0.5;entryDx=0;entryDy=0;" edge="1" parent="1" source="y-mk62jJRqAOhMk4SxJC-26" target="y-mk62jJRqAOhMk4SxJC-1">
          <mxGeometry relative="1" as="geometry">
            <mxPoint x="211" y="180" as="sourcePoint" />
            <mxPoint x="371" y="180" as="targetPoint" />
          </mxGeometry>
        </mxCell>
        <mxCell id="y-mk62jJRqAOhMk4SxJC-31" value="" style="endArrow=none;html=1;rounded=0;exitX=1;exitY=0.5;exitDx=0;exitDy=0;entryX=0;entryY=0.75;entryDx=0;entryDy=0;" edge="1" parent="1" source="y-mk62jJRqAOhMk4SxJC-27" target="y-mk62jJRqAOhMk4SxJC-1">
          <mxGeometry relative="1" as="geometry">
            <mxPoint x="221" y="190" as="sourcePoint" />
            <mxPoint x="381" y="190" as="targetPoint" />
          </mxGeometry>
        </mxCell>
        <mxCell id="y-mk62jJRqAOhMk4SxJC-32" value="CustomerID" style="ellipse;whiteSpace=wrap;html=1;align=center;fontStyle=4;" vertex="1" parent="1">
          <mxGeometry x="515" y="320" width="100" height="40" as="geometry" />
        </mxCell>
        <mxCell id="y-mk62jJRqAOhMk4SxJC-33" value="FullName" style="ellipse;whiteSpace=wrap;html=1;align=center;" vertex="1" parent="1">
          <mxGeometry x="515" y="370" width="100" height="40" as="geometry" />
        </mxCell>
        <mxCell id="y-mk62jJRqAOhMk4SxJC-34" value="ContactDetails" style="ellipse;whiteSpace=wrap;html=1;align=center;" vertex="1" parent="1">
          <mxGeometry x="515" y="420" width="100" height="40" as="geometry" />
        </mxCell>
        <mxCell id="y-mk62jJRqAOhMk4SxJC-35" value="Address" style="ellipse;whiteSpace=wrap;html=1;align=center;" vertex="1" parent="1">
          <mxGeometry x="515" y="470" width="100" height="40" as="geometry" />
        </mxCell>
        <mxCell id="y-mk62jJRqAOhMk4SxJC-36" value="" style="endArrow=none;html=1;rounded=0;exitX=1;exitY=0;exitDx=0;exitDy=0;entryX=0;entryY=0.5;entryDx=0;entryDy=0;" edge="1" parent="1" source="y-mk62jJRqAOhMk4SxJC-3" target="y-mk62jJRqAOhMk4SxJC-32">
          <mxGeometry relative="1" as="geometry">
            <mxPoint x="205" y="500" as="sourcePoint" />
            <mxPoint x="365" y="500" as="targetPoint" />
          </mxGeometry>
        </mxCell>
        <mxCell id="y-mk62jJRqAOhMk4SxJC-37" value="" style="endArrow=none;html=1;rounded=0;exitX=0;exitY=0.5;exitDx=0;exitDy=0;entryX=1;entryY=0.25;entryDx=0;entryDy=0;" edge="1" parent="1" source="y-mk62jJRqAOhMk4SxJC-33" target="y-mk62jJRqAOhMk4SxJC-3">
          <mxGeometry relative="1" as="geometry">
            <mxPoint x="215" y="510" as="sourcePoint" />
            <mxPoint x="375" y="510" as="targetPoint" />
          </mxGeometry>
        </mxCell>
        <mxCell id="y-mk62jJRqAOhMk4SxJC-38" value="" style="endArrow=none;html=1;rounded=0;exitX=0;exitY=0.5;exitDx=0;exitDy=0;entryX=1;entryY=0.75;entryDx=0;entryDy=0;" edge="1" parent="1" source="y-mk62jJRqAOhMk4SxJC-34" target="y-mk62jJRqAOhMk4SxJC-3">
          <mxGeometry relative="1" as="geometry">
            <mxPoint x="225" y="520" as="sourcePoint" />
            <mxPoint x="385" y="520" as="targetPoint" />
          </mxGeometry>
        </mxCell>
        <mxCell id="y-mk62jJRqAOhMk4SxJC-39" value="" style="endArrow=none;html=1;rounded=0;entryX=0;entryY=0.5;entryDx=0;entryDy=0;exitX=1;exitY=1;exitDx=0;exitDy=0;" edge="1" parent="1" source="y-mk62jJRqAOhMk4SxJC-3" target="y-mk62jJRqAOhMk4SxJC-35">
          <mxGeometry relative="1" as="geometry">
            <mxPoint x="235" y="530" as="sourcePoint" />
            <mxPoint x="395" y="530" as="targetPoint" />
          </mxGeometry>
        </mxCell>
        <mxCell id="y-mk62jJRqAOhMk4SxJC-48" value="OrderID" style="ellipse;whiteSpace=wrap;html=1;align=center;fontStyle=4;" vertex="1" parent="1">
          <mxGeometry x="-70" y="440" width="100" height="40" as="geometry" />
        </mxCell>
        <mxCell id="y-mk62jJRqAOhMk4SxJC-49" value="OrderDate" style="ellipse;whiteSpace=wrap;html=1;align=center;" vertex="1" parent="1">
          <mxGeometry x="-70" y="490" width="100" height="40" as="geometry" />
        </mxCell>
        <mxCell id="y-mk62jJRqAOhMk4SxJC-50" value="Status" style="ellipse;whiteSpace=wrap;html=1;align=center;" vertex="1" parent="1">
          <mxGeometry x="-70" y="540" width="100" height="40" as="geometry" />
        </mxCell>
        <mxCell id="y-mk62jJRqAOhMk4SxJC-51" value="TotalAmount" style="ellipse;whiteSpace=wrap;html=1;align=center;" vertex="1" parent="1">
          <mxGeometry x="-70" y="590" width="100" height="40" as="geometry" />
        </mxCell>
        <mxCell id="y-mk62jJRqAOhMk4SxJC-52" value="" style="endArrow=none;html=1;rounded=0;exitX=1;exitY=0.5;exitDx=0;exitDy=0;entryX=0;entryY=0;entryDx=0;entryDy=0;" edge="1" parent="1" source="y-mk62jJRqAOhMk4SxJC-48" target="y-mk62jJRqAOhMk4SxJC-4">
          <mxGeometry relative="1" as="geometry">
            <mxPoint x="160" y="530" as="sourcePoint" />
            <mxPoint x="320" y="530" as="targetPoint" />
          </mxGeometry>
        </mxCell>
        <mxCell id="y-mk62jJRqAOhMk4SxJC-53" value="" style="endArrow=none;html=1;rounded=0;entryX=1;entryY=0.5;entryDx=0;entryDy=0;exitX=0;exitY=0.25;exitDx=0;exitDy=0;" edge="1" parent="1" source="y-mk62jJRqAOhMk4SxJC-4" target="y-mk62jJRqAOhMk4SxJC-49">
          <mxGeometry relative="1" as="geometry">
            <mxPoint x="170" y="540" as="sourcePoint" />
            <mxPoint x="330" y="540" as="targetPoint" />
          </mxGeometry>
        </mxCell>
        <mxCell id="y-mk62jJRqAOhMk4SxJC-54" value="" style="endArrow=none;html=1;rounded=0;entryX=1;entryY=0.5;entryDx=0;entryDy=0;exitX=0;exitY=0.75;exitDx=0;exitDy=0;" edge="1" parent="1" source="y-mk62jJRqAOhMk4SxJC-4" target="y-mk62jJRqAOhMk4SxJC-50">
          <mxGeometry relative="1" as="geometry">
            <mxPoint x="180" y="550" as="sourcePoint" />
            <mxPoint x="340" y="550" as="targetPoint" />
          </mxGeometry>
        </mxCell>
        <mxCell id="y-mk62jJRqAOhMk4SxJC-55" value="" style="endArrow=none;html=1;rounded=0;exitX=1;exitY=0.5;exitDx=0;exitDy=0;entryX=0;entryY=1;entryDx=0;entryDy=0;" edge="1" parent="1" source="y-mk62jJRqAOhMk4SxJC-51" target="y-mk62jJRqAOhMk4SxJC-4">
          <mxGeometry relative="1" as="geometry">
            <mxPoint x="190" y="560" as="sourcePoint" />
            <mxPoint x="350" y="560" as="targetPoint" />
          </mxGeometry>
        </mxCell>
        <mxCell id="y-mk62jJRqAOhMk4SxJC-64" value="PaymentID" style="ellipse;whiteSpace=wrap;html=1;align=center;fontStyle=4;" vertex="1" parent="1">
          <mxGeometry x="245" y="800" width="100" height="40" as="geometry" />
        </mxCell>
        <mxCell id="y-mk62jJRqAOhMk4SxJC-65" value="Amount" style="ellipse;whiteSpace=wrap;html=1;align=center;" vertex="1" parent="1">
          <mxGeometry x="335" y="850" width="100" height="40" as="geometry" />
        </mxCell>
        <mxCell id="y-mk62jJRqAOhMk4SxJC-66" value="PaymentDate" style="ellipse;whiteSpace=wrap;html=1;align=center;" vertex="1" parent="1">
          <mxGeometry x="455" y="850" width="100" height="40" as="geometry" />
        </mxCell>
        <mxCell id="y-mk62jJRqAOhMk4SxJC-67" value="PaymentMethod " style="ellipse;whiteSpace=wrap;html=1;align=center;" vertex="1" parent="1">
          <mxGeometry x="515" y="800" width="100" height="40" as="geometry" />
        </mxCell>
        <mxCell id="y-mk62jJRqAOhMk4SxJC-68" value="ReviewID" style="ellipse;whiteSpace=wrap;html=1;align=center;fontStyle=4;" vertex="1" parent="1">
          <mxGeometry x="940" y="470" width="100" height="40" as="geometry" />
        </mxCell>
        <mxCell id="y-mk62jJRqAOhMk4SxJC-69" value="Comments" style="ellipse;whiteSpace=wrap;html=1;align=center;" vertex="1" parent="1">
          <mxGeometry x="940" y="520" width="100" height="40" as="geometry" />
        </mxCell>
        <mxCell id="y-mk62jJRqAOhMk4SxJC-70" value="ReviewDate" style="ellipse;whiteSpace=wrap;html=1;align=center;" vertex="1" parent="1">
          <mxGeometry x="940" y="570" width="100" height="40" as="geometry" />
        </mxCell>
        <mxCell id="y-mk62jJRqAOhMk4SxJC-71" value="ProductID " style="ellipse;whiteSpace=wrap;html=1;align=center;" vertex="1" parent="1">
          <mxGeometry x="940" y="620" width="100" height="40" as="geometry" />
        </mxCell>
        <mxCell id="y-mk62jJRqAOhMk4SxJC-72" value="CustomerID" style="ellipse;whiteSpace=wrap;html=1;align=center;" vertex="1" parent="1">
          <mxGeometry x="830" y="620" width="100" height="40" as="geometry" />
        </mxCell>
        <mxCell id="y-mk62jJRqAOhMk4SxJC-73" value="" style="endArrow=none;html=1;rounded=0;exitX=0;exitY=0.5;exitDx=0;exitDy=0;entryX=1;entryY=0.25;entryDx=0;entryDy=0;" edge="1" parent="1" source="y-mk62jJRqAOhMk4SxJC-68" target="y-mk62jJRqAOhMk4SxJC-5">
          <mxGeometry relative="1" as="geometry">
            <mxPoint x="660" y="670" as="sourcePoint" />
            <mxPoint x="820" y="670" as="targetPoint" />
          </mxGeometry>
        </mxCell>
        <mxCell id="y-mk62jJRqAOhMk4SxJC-74" value="" style="endArrow=none;html=1;rounded=0;exitX=1;exitY=0.5;exitDx=0;exitDy=0;entryX=0;entryY=0.5;entryDx=0;entryDy=0;" edge="1" parent="1" source="y-mk62jJRqAOhMk4SxJC-5" target="y-mk62jJRqAOhMk4SxJC-69">
          <mxGeometry relative="1" as="geometry">
            <mxPoint x="670" y="680" as="sourcePoint" />
            <mxPoint x="830" y="680" as="targetPoint" />
          </mxGeometry>
        </mxCell>
        <mxCell id="y-mk62jJRqAOhMk4SxJC-75" value="" style="endArrow=none;html=1;rounded=0;exitX=0;exitY=0.5;exitDx=0;exitDy=0;entryX=1;entryY=0.75;entryDx=0;entryDy=0;" edge="1" parent="1" source="y-mk62jJRqAOhMk4SxJC-70" target="y-mk62jJRqAOhMk4SxJC-5">
          <mxGeometry relative="1" as="geometry">
            <mxPoint x="680" y="690" as="sourcePoint" />
            <mxPoint x="840" y="690" as="targetPoint" />
          </mxGeometry>
        </mxCell>
        <mxCell id="y-mk62jJRqAOhMk4SxJC-76" value="" style="endArrow=none;html=1;rounded=0;exitX=0;exitY=0.5;exitDx=0;exitDy=0;entryX=1;entryY=1;entryDx=0;entryDy=0;" edge="1" parent="1" source="y-mk62jJRqAOhMk4SxJC-71" target="y-mk62jJRqAOhMk4SxJC-5">
          <mxGeometry relative="1" as="geometry">
            <mxPoint x="690" y="700" as="sourcePoint" />
            <mxPoint x="850" y="700" as="targetPoint" />
          </mxGeometry>
        </mxCell>
        <mxCell id="y-mk62jJRqAOhMk4SxJC-77" value="" style="endArrow=none;html=1;rounded=0;entryX=0.75;entryY=1;entryDx=0;entryDy=0;exitX=0.5;exitY=0;exitDx=0;exitDy=0;" edge="1" parent="1" source="y-mk62jJRqAOhMk4SxJC-72" target="y-mk62jJRqAOhMk4SxJC-5">
          <mxGeometry relative="1" as="geometry">
            <mxPoint x="715" y="650" as="sourcePoint" />
            <mxPoint x="875" y="650" as="targetPoint" />
          </mxGeometry>
        </mxCell>
        <mxCell id="y-mk62jJRqAOhMk4SxJC-78" value="" style="endArrow=none;html=1;rounded=0;exitX=1;exitY=0.5;exitDx=0;exitDy=0;entryX=0;entryY=1;entryDx=0;entryDy=0;" edge="1" parent="1" source="y-mk62jJRqAOhMk4SxJC-64" target="y-mk62jJRqAOhMk4SxJC-6">
          <mxGeometry relative="1" as="geometry">
            <mxPoint x="555" y="730" as="sourcePoint" />
            <mxPoint x="715" y="730" as="targetPoint" />
          </mxGeometry>
        </mxCell>
        <mxCell id="y-mk62jJRqAOhMk4SxJC-79" value="" style="endArrow=none;html=1;rounded=0;exitX=0.5;exitY=0;exitDx=0;exitDy=0;entryX=0.25;entryY=1;entryDx=0;entryDy=0;" edge="1" parent="1" source="y-mk62jJRqAOhMk4SxJC-65" target="y-mk62jJRqAOhMk4SxJC-6">
          <mxGeometry relative="1" as="geometry">
            <mxPoint x="565" y="740" as="sourcePoint" />
            <mxPoint x="725" y="740" as="targetPoint" />
          </mxGeometry>
        </mxCell>
        <mxCell id="y-mk62jJRqAOhMk4SxJC-80" value="" style="endArrow=none;html=1;rounded=0;exitX=0;exitY=0;exitDx=0;exitDy=0;entryX=0.75;entryY=1;entryDx=0;entryDy=0;" edge="1" parent="1" source="y-mk62jJRqAOhMk4SxJC-66" target="y-mk62jJRqAOhMk4SxJC-6">
          <mxGeometry relative="1" as="geometry">
            <mxPoint x="575" y="750" as="sourcePoint" />
            <mxPoint x="735" y="750" as="targetPoint" />
          </mxGeometry>
        </mxCell>
        <mxCell id="y-mk62jJRqAOhMk4SxJC-81" value="" style="endArrow=none;html=1;rounded=0;exitX=0;exitY=0;exitDx=0;exitDy=0;entryX=1;entryY=0.75;entryDx=0;entryDy=0;" edge="1" parent="1" source="y-mk62jJRqAOhMk4SxJC-67" target="y-mk62jJRqAOhMk4SxJC-6">
          <mxGeometry relative="1" as="geometry">
            <mxPoint x="585" y="760" as="sourcePoint" />
            <mxPoint x="745" y="760" as="targetPoint" />
          </mxGeometry>
        </mxCell>
        <mxCell id="y-mk62jJRqAOhMk4SxJC-82" value="list " style="shape=rhombus;perimeter=rhombusPerimeter;whiteSpace=wrap;html=1;align=center;" vertex="1" parent="1">
          <mxGeometry x="426" y="80" width="123" height="60" as="geometry" />
        </mxCell>
        <mxCell id="y-mk62jJRqAOhMk4SxJC-83" value="" style="endArrow=none;html=1;rounded=0;exitX=1;exitY=0.5;exitDx=0;exitDy=0;entryX=0;entryY=0.5;entryDx=0;entryDy=0;" edge="1" parent="1" source="y-mk62jJRqAOhMk4SxJC-82" target="y-mk62jJRqAOhMk4SxJC-2">
          <mxGeometry relative="1" as="geometry">
            <mxPoint x="541" y="180" as="sourcePoint" />
            <mxPoint x="701" y="180" as="targetPoint" />
          </mxGeometry>
        </mxCell>
        <mxCell id="y-mk62jJRqAOhMk4SxJC-84" value="1" style="resizable=0;html=1;whiteSpace=wrap;align=right;verticalAlign=bottom;" connectable="0" vertex="1" parent="y-mk62jJRqAOhMk4SxJC-83">
          <mxGeometry x="1" relative="1" as="geometry" />
        </mxCell>
        <mxCell id="y-mk62jJRqAOhMk4SxJC-85" value="" style="shape=link;html=1;rounded=0;entryX=1;entryY=0.5;entryDx=0;entryDy=0;exitX=0;exitY=0.5;exitDx=0;exitDy=0;" edge="1" parent="1" source="y-mk62jJRqAOhMk4SxJC-82" target="y-mk62jJRqAOhMk4SxJC-1">
          <mxGeometry relative="1" as="geometry">
            <mxPoint x="411" y="170" as="sourcePoint" />
            <mxPoint x="571" y="170" as="targetPoint" />
          </mxGeometry>
        </mxCell>
        <mxCell id="y-mk62jJRqAOhMk4SxJC-86" value="N" style="resizable=0;html=1;whiteSpace=wrap;align=right;verticalAlign=bottom;" connectable="0" vertex="1" parent="y-mk62jJRqAOhMk4SxJC-85">
          <mxGeometry x="1" relative="1" as="geometry" />
        </mxCell>
        <mxCell id="y-mk62jJRqAOhMk4SxJC-87" value="have" style="shape=rhombus;perimeter=rhombusPerimeter;whiteSpace=wrap;html=1;align=center;rotation=40;" vertex="1" parent="1">
          <mxGeometry x="670" y="250" width="120" height="60" as="geometry" />
        </mxCell>
        <mxCell id="y-mk62jJRqAOhMk4SxJC-88" value="" style="endArrow=none;html=1;rounded=0;exitX=1;exitY=1;exitDx=0;exitDy=0;entryX=0;entryY=0.5;entryDx=0;entryDy=0;" edge="1" parent="1" source="y-mk62jJRqAOhMk4SxJC-1" target="y-mk62jJRqAOhMk4SxJC-87">
          <mxGeometry relative="1" as="geometry">
            <mxPoint x="450" y="290" as="sourcePoint" />
            <mxPoint x="610" y="290" as="targetPoint" />
          </mxGeometry>
        </mxCell>
        <mxCell id="y-mk62jJRqAOhMk4SxJC-89" value="1" style="resizable=0;html=1;whiteSpace=wrap;align=right;verticalAlign=bottom;" connectable="0" vertex="1" parent="y-mk62jJRqAOhMk4SxJC-88">
          <mxGeometry x="1" relative="1" as="geometry">
            <mxPoint x="-434" y="-81" as="offset" />
          </mxGeometry>
        </mxCell>
        <mxCell id="y-mk62jJRqAOhMk4SxJC-92" value=" browse" style="shape=rhombus;perimeter=rhombusPerimeter;whiteSpace=wrap;html=1;align=center;rotation=45;" vertex="1" parent="1">
          <mxGeometry x="220" y="240" width="100" height="60" as="geometry" />
        </mxCell>
        <mxCell id="y-mk62jJRqAOhMk4SxJC-95" value="" style="shape=link;html=1;rounded=0;entryX=0.5;entryY=1;entryDx=0;entryDy=0;exitX=0;exitY=0.5;exitDx=0;exitDy=0;" edge="1" parent="1" source="y-mk62jJRqAOhMk4SxJC-92" target="y-mk62jJRqAOhMk4SxJC-1">
          <mxGeometry relative="1" as="geometry">
            <mxPoint x="370" y="310" as="sourcePoint" />
            <mxPoint x="530" y="310" as="targetPoint" />
          </mxGeometry>
        </mxCell>
        <mxCell id="y-mk62jJRqAOhMk4SxJC-96" value="N" style="resizable=0;html=1;whiteSpace=wrap;align=right;verticalAlign=bottom;" connectable="0" vertex="1" parent="y-mk62jJRqAOhMk4SxJC-95">
          <mxGeometry x="1" relative="1" as="geometry">
            <mxPoint y="20" as="offset" />
          </mxGeometry>
        </mxCell>
        <mxCell id="y-mk62jJRqAOhMk4SxJC-99" value="associated" style="shape=rhombus;perimeter=rhombusPerimeter;whiteSpace=wrap;html=1;align=center;" vertex="1" parent="1">
          <mxGeometry x="200" y="640" width="120" height="60" as="geometry" />
        </mxCell>
        <mxCell id="y-mk62jJRqAOhMk4SxJC-100" value="" style="endArrow=none;html=1;rounded=0;exitX=1;exitY=1;exitDx=0;exitDy=0;entryX=0;entryY=0.5;entryDx=0;entryDy=0;" edge="1" parent="1" source="y-mk62jJRqAOhMk4SxJC-4" target="y-mk62jJRqAOhMk4SxJC-99">
          <mxGeometry relative="1" as="geometry">
            <mxPoint x="350" y="620" as="sourcePoint" />
            <mxPoint x="510" y="620" as="targetPoint" />
          </mxGeometry>
        </mxCell>
        <mxCell id="y-mk62jJRqAOhMk4SxJC-101" value="1" style="resizable=0;html=1;whiteSpace=wrap;align=right;verticalAlign=bottom;" connectable="0" vertex="1" parent="y-mk62jJRqAOhMk4SxJC-100">
          <mxGeometry x="1" relative="1" as="geometry">
            <mxPoint y="-71" as="offset" />
          </mxGeometry>
        </mxCell>
        <mxCell id="y-mk62jJRqAOhMk4SxJC-102" value="" style="endArrow=none;html=1;rounded=0;exitX=1;exitY=0.5;exitDx=0;exitDy=0;entryX=0;entryY=0;entryDx=0;entryDy=0;" edge="1" parent="1" source="y-mk62jJRqAOhMk4SxJC-99" target="y-mk62jJRqAOhMk4SxJC-6">
          <mxGeometry relative="1" as="geometry">
            <mxPoint x="350" y="620" as="sourcePoint" />
            <mxPoint x="510" y="620" as="targetPoint" />
          </mxGeometry>
        </mxCell>
        <mxCell id="y-mk62jJRqAOhMk4SxJC-103" value="1" style="resizable=0;html=1;whiteSpace=wrap;align=right;verticalAlign=bottom;" connectable="0" vertex="1" parent="y-mk62jJRqAOhMk4SxJC-102">
          <mxGeometry x="1" relative="1" as="geometry">
            <mxPoint x="5" as="offset" />
          </mxGeometry>
        </mxCell>
        <mxCell id="y-mk62jJRqAOhMk4SxJC-104" value=" place" style="shape=rhombus;perimeter=rhombusPerimeter;whiteSpace=wrap;html=1;align=center;rotation=-30;" vertex="1" parent="1">
          <mxGeometry x="245" y="468.66" width="80" height="40" as="geometry" />
        </mxCell>
        <mxCell id="y-mk62jJRqAOhMk4SxJC-105" value="" style="endArrow=none;html=1;rounded=0;entryX=0;entryY=1;entryDx=0;entryDy=0;exitX=1;exitY=0.5;exitDx=0;exitDy=0;" edge="1" parent="1" source="y-mk62jJRqAOhMk4SxJC-104" target="y-mk62jJRqAOhMk4SxJC-3">
          <mxGeometry relative="1" as="geometry">
            <mxPoint x="280" y="410" as="sourcePoint" />
            <mxPoint x="440" y="410" as="targetPoint" />
          </mxGeometry>
        </mxCell>
        <mxCell id="y-mk62jJRqAOhMk4SxJC-106" value="1" style="resizable=0;html=1;whiteSpace=wrap;align=right;verticalAlign=bottom;" connectable="0" vertex="1" parent="y-mk62jJRqAOhMk4SxJC-105">
          <mxGeometry x="1" relative="1" as="geometry" />
        </mxCell>
        <mxCell id="y-mk62jJRqAOhMk4SxJC-107" value="" style="shape=link;html=1;rounded=0;entryX=1;entryY=0;entryDx=0;entryDy=0;exitX=0;exitY=0.5;exitDx=0;exitDy=0;" edge="1" parent="1" source="y-mk62jJRqAOhMk4SxJC-104" target="y-mk62jJRqAOhMk4SxJC-4">
          <mxGeometry relative="1" as="geometry">
            <mxPoint x="280" y="410" as="sourcePoint" />
            <mxPoint x="440" y="410" as="targetPoint" />
          </mxGeometry>
        </mxCell>
        <mxCell id="y-mk62jJRqAOhMk4SxJC-108" value="N" style="resizable=0;html=1;whiteSpace=wrap;align=right;verticalAlign=bottom;" connectable="0" vertex="1" parent="y-mk62jJRqAOhMk4SxJC-107">
          <mxGeometry x="1" relative="1" as="geometry" />
        </mxCell>
        <mxCell id="y-mk62jJRqAOhMk4SxJC-109" value="" style="endArrow=none;html=1;rounded=0;exitX=1;exitY=0.5;exitDx=0;exitDy=0;entryX=0;entryY=0;entryDx=0;entryDy=0;" edge="1" parent="1" source="y-mk62jJRqAOhMk4SxJC-92" target="y-mk62jJRqAOhMk4SxJC-3">
          <mxGeometry relative="1" as="geometry">
            <mxPoint x="280" y="330" as="sourcePoint" />
            <mxPoint x="440" y="330" as="targetPoint" />
          </mxGeometry>
        </mxCell>
        <mxCell id="y-mk62jJRqAOhMk4SxJC-110" value="1" style="resizable=0;html=1;whiteSpace=wrap;align=right;verticalAlign=bottom;" connectable="0" vertex="1" parent="y-mk62jJRqAOhMk4SxJC-109">
          <mxGeometry x="1" relative="1" as="geometry" />
        </mxCell>
        <mxCell id="y-mk62jJRqAOhMk4SxJC-112" value="" style="shape=link;html=1;rounded=0;exitX=1;exitY=0.5;exitDx=0;exitDy=0;entryX=0;entryY=0;entryDx=0;entryDy=0;" edge="1" parent="1" source="y-mk62jJRqAOhMk4SxJC-87" target="y-mk62jJRqAOhMk4SxJC-5">
          <mxGeometry relative="1" as="geometry">
            <mxPoint x="520" y="460" as="sourcePoint" />
            <mxPoint x="680" y="460" as="targetPoint" />
          </mxGeometry>
        </mxCell>
        <mxCell id="y-mk62jJRqAOhMk4SxJC-113" value="N" style="resizable=0;html=1;whiteSpace=wrap;align=right;verticalAlign=bottom;" connectable="0" vertex="1" parent="y-mk62jJRqAOhMk4SxJC-112">
          <mxGeometry x="1" relative="1" as="geometry" />
        </mxCell>
      </root>
    </mxGraphModel>
  </diagram>
</mxfile>
